<svg xmlns="http://www.w3.org/2000/svg" width="640" height="260" viewBox="0 0 640 260">
<defs><linearGradient id="g" x1="0" y1="0" x2="0" y2="1"><stop offset="0" stop-color="#A8CFE1"/><stop offset="1" stop-color="#7EBDB1"/></linearGradient></defs>
<path d="M0 135 Q92 15 193 132 Q287 37 381 138 Q501 0 640 135 L640 260 L0 260Z" fill="url(#g)"/>
<path d="M0 186 Q79 120 172 188 Q278 97 400 189 Q519 130 640 186 L640 260 L0 260Z" fill="#8EBC87" opacity=".9"/>
<path d="M0 232 Q146 202 295 231 Q471 197 640 232 L640 260 L0 260Z" fill="#69B578" opacity=".85"/>
<g fill="#E4F3E9" opacity=".65"><ellipse cx="193" cy="130" rx="30" ry="11"/><ellipse cx="383" cy="138" rx="27" ry="9"/><ellipse cx="502" cy="115" rx="28" ry="10"/></g>
</svg>
