<svg xmlns="http://www.w3.org/2000/svg" width="1200" height="650" viewBox="0 0 1200 650">
<title>DeX Kids Adventure – illustrated city park</title>
<defs><linearGradient id="sky" x2="0" y2="1"><stop stop-color="#58AEF7"/><stop offset="1" stop-color="#DFF4FF"/></linearGradient>
<linearGradient id="land" x2="0" y2="1"><stop stop-color="#8ACF79"/><stop offset="1" stop-color="#4A9C61"/></linearGradient>
<linearGradient id="sea" x2="0" y2="1"><stop stop-color="#54C8E1"/><stop offset="1" stop-color="#138FB9"/></linearGradient>
<linearGradient id="tower" x2="0" y2="1"><stop stop-color="#FFE7AE"/><stop offset="1" stop-color="#E7B57B"/></linearGradient></defs>
<rect x="0" y="0" width="1200" height="650" fill="url(#sky)" />
<circle cx="1020" cy="98" r="56" fill="#FFF7C5"/>
<ellipse cx="165" cy="107" rx="92" ry="26" fill="#FFFFFF"/><ellipse cx="216" cy="99" rx="70" ry="34" fill="#FFFFFF"/><ellipse cx="640" cy="85" rx="98" ry="24" fill="#FFFFFF"/><ellipse cx="700" cy="79" rx="65" ry="32" fill="#FFFFFF"/>
<path d="M0 320 Q138 182 280 288 T560 299 T835 280 T1200 281 L1200 650 L0 650Z" fill="#9BCCAD" stroke="none" stroke-width="0" stroke-linejoin="round"/>
<path d="M0 382 Q205 284 375 367 T770 331 T1200 362 L1200 650 L0 650Z" fill="#68BDA2" stroke="none" stroke-width="0" stroke-linejoin="round"/>
<path d="M0 518 Q204 464 422 525 T855 512 T1200 499 L1200 650 L0 650Z" fill="url(#land)" stroke="none" stroke-width="0" stroke-linejoin="round"/><path d="M0 615 Q210 560 410 614 T900 589 T1200 617 L1200 650 L0 650Z" fill="#3F9259" stroke="none" stroke-width="0" stroke-linejoin="round"/><rect x="-33" y="320" width="50" height="90" fill="#78A6BA" rx="4"/><rect x="-23" y="330" width="8" height="9" fill="#E7F9FE" /><rect x="-10" y="330" width="8" height="9" fill="#E7F9FE" /><rect x="3" y="330" width="8" height="9" fill="#E7F9FE" /><rect x="54" y="289" width="58" height="121" fill="#93B2C9" rx="4"/><rect x="64" y="299" width="8" height="9" fill="#E7F9FE" /><rect x="77" y="299" width="8" height="9" fill="#E7F9FE" /><rect x="90" y="299" width="8" height="9" fill="#E7F9FE" /><rect x="141" y="258" width="66" height="152" fill="#78A6BA" rx="4"/><rect x="151" y="268" width="8" height="9" fill="#E7F9FE" /><rect x="164" y="268" width="8" height="9" fill="#E7F9FE" /><rect x="177" y="268" width="8" height="9" fill="#E7F9FE" /><rect x="228" y="227" width="74" height="183" fill="#93B2C9" rx="4"/><rect x="238" y="237" width="8" height="9" fill="#E7F9FE" /><rect x="251" y="237" width="8" height="9" fill="#E7F9FE" /><rect x="264" y="237" width="8" height="9" fill="#E7F9FE" /><rect x="315" y="196" width="50" height="214" fill="#78A6BA" rx="4"/><rect x="325" y="206" width="8" height="9" fill="#E7F9FE" /><rect x="338" y="206" width="8" height="9" fill="#E7F9FE" /><rect x="351" y="206" width="8" height="9" fill="#E7F9FE" /><rect x="402" y="165" width="58" height="245" fill="#93B2C9" rx="4"/><rect x="412" y="175" width="8" height="9" fill="#E7F9FE" /><rect x="425" y="175" width="8" height="9" fill="#E7F9FE" /><rect x="438" y="175" width="8" height="9" fill="#E7F9FE" /><rect x="489" y="309" width="66" height="101" fill="#78A6BA" rx="4"/><rect x="499" y="319" width="8" height="9" fill="#E7F9FE" /><rect x="512" y="319" width="8" height="9" fill="#E7F9FE" /><rect x="525" y="319" width="8" height="9" fill="#E7F9FE" /><rect x="576" y="278" width="74" height="132" fill="#93B2C9" rx="4"/><rect x="586" y="288" width="8" height="9" fill="#E7F9FE" /><rect x="599" y="288" width="8" height="9" fill="#E7F9FE" /><rect x="612" y="288" width="8" height="9" fill="#E7F9FE" /><rect x="663" y="247" width="50" height="163" fill="#78A6BA" rx="4"/><rect x="673" y="257" width="8" height="9" fill="#E7F9FE" /><rect x="686" y="257" width="8" height="9" fill="#E7F9FE" /><rect x="699" y="257" width="8" height="9" fill="#E7F9FE" /><rect x="750" y="216" width="58" height="194" fill="#93B2C9" rx="4"/><rect x="760" y="226" width="8" height="9" fill="#E7F9FE" /><rect x="773" y="226" width="8" height="9" fill="#E7F9FE" /><rect x="786" y="226" width="8" height="9" fill="#E7F9FE" /><rect x="837" y="185" width="66" height="225" fill="#78A6BA" rx="4"/><rect x="847" y="195" width="8" height="9" fill="#E7F9FE" /><rect x="860" y="195" width="8" height="9" fill="#E7F9FE" /><rect x="873" y="195" width="8" height="9" fill="#E7F9FE" /><rect x="924" y="154" width="74" height="256" fill="#93B2C9" rx="4"/><rect x="934" y="164" width="8" height="9" fill="#E7F9FE" /><rect x="947" y="164" width="8" height="9" fill="#E7F9FE" /><rect x="960" y="164" width="8" height="9" fill="#E7F9FE" /><rect x="1011" y="298" width="50" height="112" fill="#78A6BA" rx="4"/><rect x="1021" y="308" width="8" height="9" fill="#E7F9FE" /><rect x="1034" y="308" width="8" height="9" fill="#E7F9FE" /><rect x="1047" y="308" width="8" height="9" fill="#E7F9FE" /><rect x="1098" y="267" width="58" height="143" fill="#93B2C9" rx="4"/><rect x="1108" y="277" width="8" height="9" fill="#E7F9FE" /><rect x="1121" y="277" width="8" height="9" fill="#E7F9FE" /><rect x="1134" y="277" width="8" height="9" fill="#E7F9FE" /><rect x="1185" y="236" width="66" height="174" fill="#78A6BA" rx="4"/><rect x="1195" y="246" width="8" height="9" fill="#E7F9FE" /><rect x="1208" y="246" width="8" height="9" fill="#E7F9FE" /><rect x="1221" y="246" width="8" height="9" fill="#E7F9FE" /><path d="M540 640 Q508 530 572 462 Q609 420 670 420 Q777 487 765 650Z" fill="#F1DDAC" stroke="none" stroke-width="0" stroke-linejoin="round"/>
<g transform="translate(174 346) scale(1.1)"><rect x="-10" y="20" width="20" height="130" fill="#8C6343" /><ellipse cx="0" cy="-13" rx="89" ry="65" fill="#388954"/><ellipse cx="-39" cy="7" rx="57" ry="52" fill="#4CAC66"/><ellipse cx="44" cy="12" rx="55" ry="49" fill="#71BD74"/><circle cx="-34" cy="-20" r="8" fill="#CFE879"/><circle cx="46" cy="-13" r="8" fill="#B5D968"/></g><g transform="translate(1113 331) scale(0.95)"><rect x="-10" y="20" width="20" height="130" fill="#8C6343" /><ellipse cx="0" cy="-13" rx="89" ry="65" fill="#388954"/><ellipse cx="-39" cy="7" rx="57" ry="52" fill="#4CAC66"/><ellipse cx="44" cy="12" rx="55" ry="49" fill="#71BD74"/><circle cx="-34" cy="-20" r="8" fill="#CFE879"/><circle cx="46" cy="-13" r="8" fill="#B5D968"/></g><rect x="350" y="427" width="108" height="82" fill="#D5E8B5" />
<circle cx="68" cy="500" r="8" fill="#FF86AA"/><circle cx="68" cy="500" r="3" fill="#FFEAB2"/><circle cx="164" cy="500" r="10" fill="#F7C744"/><circle cx="164" cy="500" r="3" fill="#FFEAB2"/><circle cx="260" cy="500" r="12" fill="#B1A3EF"/><circle cx="260" cy="500" r="3" fill="#FFEAB2"/><circle cx="356" cy="500" r="8" fill="#FFFFFF"/><circle cx="356" cy="500" r="3" fill="#FFEAB2"/><circle cx="452" cy="500" r="10" fill="#FF86AA"/><circle cx="452" cy="500" r="3" fill="#FFEAB2"/><circle cx="548" cy="500" r="12" fill="#F7C744"/><circle cx="548" cy="500" r="3" fill="#FFEAB2"/><circle cx="644" cy="500" r="8" fill="#B1A3EF"/><circle cx="644" cy="500" r="3" fill="#FFEAB2"/><circle cx="740" cy="500" r="10" fill="#FFFFFF"/><circle cx="740" cy="500" r="3" fill="#FFEAB2"/><circle cx="836" cy="500" r="12" fill="#FF86AA"/><circle cx="836" cy="500" r="3" fill="#FFEAB2"/><circle cx="932" cy="500" r="8" fill="#F7C744"/><circle cx="932" cy="500" r="3" fill="#FFEAB2"/><circle cx="1028" cy="500" r="10" fill="#B1A3EF"/><circle cx="1028" cy="500" r="3" fill="#FFEAB2"/><circle cx="1124" cy="500" r="12" fill="#FFFFFF"/><circle cx="1124" cy="500" r="3" fill="#FFEAB2"/><circle cx="68" cy="536" r="8" fill="#FF86AA"/><circle cx="68" cy="536" r="3" fill="#FFEAB2"/><circle cx="164" cy="536" r="10" fill="#F7C744"/><circle cx="164" cy="536" r="3" fill="#FFEAB2"/><circle cx="260" cy="536" r="12" fill="#B1A3EF"/><circle cx="260" cy="536" r="3" fill="#FFEAB2"/><circle cx="356" cy="536" r="8" fill="#FFFFFF"/><circle cx="356" cy="536" r="3" fill="#FFEAB2"/><circle cx="452" cy="536" r="10" fill="#FF86AA"/><circle cx="452" cy="536" r="3" fill="#FFEAB2"/><circle cx="548" cy="536" r="12" fill="#F7C744"/><circle cx="548" cy="536" r="3" fill="#FFEAB2"/><circle cx="644" cy="536" r="8" fill="#B1A3EF"/><circle cx="644" cy="536" r="3" fill="#FFEAB2"/><circle cx="740" cy="536" r="10" fill="#FFFFFF"/><circle cx="740" cy="536" r="3" fill="#FFEAB2"/><circle cx="836" cy="536" r="12" fill="#FF86AA"/><circle cx="836" cy="536" r="3" fill="#FFEAB2"/><circle cx="932" cy="536" r="8" fill="#F7C744"/><circle cx="932" cy="536" r="3" fill="#FFEAB2"/><circle cx="1028" cy="536" r="10" fill="#B1A3EF"/><circle cx="1028" cy="536" r="3" fill="#FFEAB2"/><circle cx="1124" cy="536" r="12" fill="#FFFFFF"/><circle cx="1124" cy="536" r="3" fill="#FFEAB2"/><circle cx="68" cy="572" r="8" fill="#FF86AA"/><circle cx="68" cy="572" r="3" fill="#FFEAB2"/><circle cx="164" cy="572" r="10" fill="#F7C744"/><circle cx="164" cy="572" r="3" fill="#FFEAB2"/><circle cx="260" cy="572" r="12" fill="#B1A3EF"/><circle cx="260" cy="572" r="3" fill="#FFEAB2"/><circle cx="356" cy="572" r="8" fill="#FFFFFF"/><circle cx="356" cy="572" r="3" fill="#FFEAB2"/><circle cx="452" cy="572" r="10" fill="#FF86AA"/><circle cx="452" cy="572" r="3" fill="#FFEAB2"/><circle cx="548" cy="572" r="12" fill="#F7C744"/><circle cx="548" cy="572" r="3" fill="#FFEAB2"/><circle cx="644" cy="572" r="8" fill="#B1A3EF"/><circle cx="644" cy="572" r="3" fill="#FFEAB2"/><circle cx="740" cy="572" r="10" fill="#FFFFFF"/><circle cx="740" cy="572" r="3" fill="#FFEAB2"/><circle cx="836" cy="572" r="12" fill="#FF86AA"/><circle cx="836" cy="572" r="3" fill="#FFEAB2"/><circle cx="932" cy="572" r="8" fill="#F7C744"/><circle cx="932" cy="572" r="3" fill="#FFEAB2"/><circle cx="1028" cy="572" r="10" fill="#B1A3EF"/><circle cx="1028" cy="572" r="3" fill="#FFEAB2"/><circle cx="1124" cy="572" r="12" fill="#FFFFFF"/><circle cx="1124" cy="572" r="3" fill="#FFEAB2"/>
<path d="M456 490 Q590 385 748 477" fill="none" stroke="#FCF6D6" stroke-width="19" stroke-linejoin="round"/><path d="M0 620 Q110 601 235 626 T495 622 T764 620 T1200 623 L1200 650 L0 650Z" fill="#408C59" stroke="none" stroke-width="0" stroke-linejoin="round"/>
<circle cx="63" cy="621" r="6" fill="#F6E77E"/><circle cx="212" cy="628" r="8" fill="#FF9CB5"/><circle cx="361" cy="635" r="10" fill="#FFFFFF"/><circle cx="510" cy="621" r="6" fill="#F6E77E"/><circle cx="659" cy="628" r="8" fill="#FF9CB5"/><circle cx="808" cy="635" r="10" fill="#FFFFFF"/><circle cx="957" cy="621" r="6" fill="#F6E77E"/><circle cx="1106" cy="628" r="8" fill="#FF9CB5"/><circle cx="55" cy="635" r="10" fill="#FFFFFF"/><circle cx="204" cy="621" r="6" fill="#F6E77E"/><circle cx="353" cy="628" r="8" fill="#FF9CB5"/><circle cx="502" cy="635" r="10" fill="#FFFFFF"/><circle cx="651" cy="621" r="6" fill="#F6E77E"/>
</svg>