<svg xmlns="http://www.w3.org/2000/svg" width="1200" height="650" viewBox="0 0 1200 650">
<title>DeX Kids Adventure – illustrated gothic church</title>
<defs><linearGradient id="sky" x2="0" y2="1"><stop stop-color="#58AEF7"/><stop offset="1" stop-color="#DFF4FF"/></linearGradient>
<linearGradient id="land" x2="0" y2="1"><stop stop-color="#8ACF79"/><stop offset="1" stop-color="#4A9C61"/></linearGradient>
<linearGradient id="sea" x2="0" y2="1"><stop stop-color="#54C8E1"/><stop offset="1" stop-color="#138FB9"/></linearGradient>
<linearGradient id="tower" x2="0" y2="1"><stop stop-color="#FFE7AE"/><stop offset="1" stop-color="#E7B57B"/></linearGradient></defs>
<rect x="0" y="0" width="1200" height="650" fill="url(#sky)" />
<circle cx="1020" cy="98" r="56" fill="#FFF7C5"/>
<ellipse cx="165" cy="107" rx="92" ry="26" fill="#FFFFFF"/><ellipse cx="216" cy="99" rx="70" ry="34" fill="#FFFFFF"/><ellipse cx="640" cy="85" rx="98" ry="24" fill="#FFFFFF"/><ellipse cx="700" cy="79" rx="65" ry="32" fill="#FFFFFF"/>
<path d="M0 320 Q138 182 280 288 T560 299 T835 280 T1200 281 L1200 650 L0 650Z" fill="#9BCCAD" stroke="none" stroke-width="0" stroke-linejoin="round"/>
<path d="M0 382 Q205 284 375 367 T770 331 T1200 362 L1200 650 L0 650Z" fill="#68BDA2" stroke="none" stroke-width="0" stroke-linejoin="round"/>
<path d="M0 518 Q204 464 422 525 T855 512 T1200 499 L1200 650 L0 650Z" fill="url(#land)" stroke="none" stroke-width="0" stroke-linejoin="round"/><path d="M0 615 Q210 560 410 614 T900 589 T1200 617 L1200 650 L0 650Z" fill="#3F9259" stroke="none" stroke-width="0" stroke-linejoin="round"/><rect x="410" y="303" width="373" height="255" fill="#E1D4C2" />
<rect x="405" y="248" width="89" height="309" fill="#D5BCAA" /><rect x="698" y="248" width="90" height="309" fill="#D5BCAA" />
<path d="M393 257 L450 166 L507 257Z" fill="#677F8A" stroke="none" stroke-width="0" stroke-linejoin="round"/><path d="M689 257 L743 166 L795 257Z" fill="#677F8A" stroke="none" stroke-width="0" stroke-linejoin="round"/>
<path d="M488 308 L598 216 L711 308Z" fill="#C3A995" stroke="none" stroke-width="0" stroke-linejoin="round"/>
<rect x="556" y="397" width="86" height="160" fill="#4C718A" rx="42"/>
<rect x="435" y="336" width="48" height="74" fill="#74A6AC" rx="22"/><rect x="530" y="336" width="48" height="74" fill="#74A6AC" rx="22"/><rect x="625" y="336" width="48" height="74" fill="#74A6AC" rx="22"/><rect x="720" y="336" width="48" height="74" fill="#74A6AC" rx="22"/><circle cx="598" cy="335" r="32" fill="#83B5B5"/><path d="M0 620 Q110 601 235 626 T495 622 T764 620 T1200 623 L1200 650 L0 650Z" fill="#408C59" stroke="none" stroke-width="0" stroke-linejoin="round"/>
<circle cx="63" cy="621" r="6" fill="#F6E77E"/><circle cx="212" cy="628" r="8" fill="#FF9CB5"/><circle cx="361" cy="635" r="10" fill="#FFFFFF"/><circle cx="510" cy="621" r="6" fill="#F6E77E"/><circle cx="659" cy="628" r="8" fill="#FF9CB5"/><circle cx="808" cy="635" r="10" fill="#FFFFFF"/><circle cx="957" cy="621" r="6" fill="#F6E77E"/><circle cx="1106" cy="628" r="8" fill="#FF9CB5"/><circle cx="55" cy="635" r="10" fill="#FFFFFF"/><circle cx="204" cy="621" r="6" fill="#F6E77E"/><circle cx="353" cy="628" r="8" fill="#FF9CB5"/><circle cx="502" cy="635" r="10" fill="#FFFFFF"/><circle cx="651" cy="621" r="6" fill="#F6E77E"/>
</svg>