<svg xmlns="http://www.w3.org/2000/svg" width="1200" height="650" viewBox="0 0 1200 650">
<title>DeX Kids Adventure – illustrated hilltop mountain</title>
<defs><linearGradient id="sky" x2="0" y2="1"><stop stop-color="#79C3FB"/><stop offset="1" stop-color="#E0F1F6"/></linearGradient>
<linearGradient id="land" x2="0" y2="1"><stop stop-color="#8ACF79"/><stop offset="1" stop-color="#4A9C61"/></linearGradient>
<linearGradient id="sea" x2="0" y2="1"><stop stop-color="#54C8E1"/><stop offset="1" stop-color="#138FB9"/></linearGradient>
<linearGradient id="tower" x2="0" y2="1"><stop stop-color="#FFE7AE"/><stop offset="1" stop-color="#E7B57B"/></linearGradient></defs>
<rect x="0" y="0" width="1200" height="650" fill="url(#sky)" />
<circle cx="1020" cy="98" r="56" fill="#FFF7C5"/>
<ellipse cx="165" cy="107" rx="92" ry="26" fill="#FFFFFF"/><ellipse cx="216" cy="99" rx="70" ry="34" fill="#FFFFFF"/><ellipse cx="640" cy="85" rx="98" ry="24" fill="#FFFFFF"/><ellipse cx="700" cy="79" rx="65" ry="32" fill="#FFFFFF"/>
<path d="M0 320 Q138 182 280 288 T560 299 T835 280 T1200 281 L1200 650 L0 650Z" fill="#6EAFA1" stroke="none" stroke-width="0" stroke-linejoin="round"/>
<path d="M0 382 Q205 284 375 367 T770 331 T1200 362 L1200 650 L0 650Z" fill="#3C8F81" stroke="none" stroke-width="0" stroke-linejoin="round"/>
<path d="M0 518 Q204 464 422 525 T855 512 T1200 499 L1200 650 L0 650Z" fill="url(#land)" stroke="none" stroke-width="0" stroke-linejoin="round"/><path d="M0 615 Q210 560 410 614 T900 589 T1200 617 L1200 650 L0 650Z" fill="#3F9259" stroke="none" stroke-width="0" stroke-linejoin="round"/><path d="M0 560 L253 243 L405 474 L639 180 L898 520 L1100 286 L1200 419 L1200 650 L0 650Z" fill="#528A7E" stroke="none" stroke-width="0" stroke-linejoin="round"/>
<path d="M546 296 L639 180 L732 302 L669 289 L635 258 L607 303Z" fill="#E6F0EA" stroke="none" stroke-width="0" stroke-linejoin="round"/>
<g transform="translate(154 386) scale(1.15)"><rect x="-8" y="-15" width="16" height="135" fill="#78513B" /><path d="M0 -115 L-60 65 L60 65Z" fill="#276F5B" stroke="none" stroke-width="0" stroke-linejoin="round"/><path d="M0 -85 L-54 90 L54 90Z" fill="#33876C" stroke="none" stroke-width="0" stroke-linejoin="round"/><path d="M0 -38 L-65 110 L65 110Z" fill="#429A76" stroke="none" stroke-width="0" stroke-linejoin="round"/></g><g transform="translate(1089 391) scale(1.22)"><rect x="-8" y="-15" width="16" height="135" fill="#78513B" /><path d="M0 -115 L-60 65 L60 65Z" fill="#276F5B" stroke="none" stroke-width="0" stroke-linejoin="round"/><path d="M0 -85 L-54 90 L54 90Z" fill="#33876C" stroke="none" stroke-width="0" stroke-linejoin="round"/><path d="M0 -38 L-65 110 L65 110Z" fill="#429A76" stroke="none" stroke-width="0" stroke-linejoin="round"/></g><path d="M0 620 Q110 601 235 626 T495 622 T764 620 T1200 623 L1200 650 L0 650Z" fill="#408C59" stroke="none" stroke-width="0" stroke-linejoin="round"/>
<circle cx="63" cy="621" r="6" fill="#F6E77E"/><circle cx="212" cy="628" r="8" fill="#FF9CB5"/><circle cx="361" cy="635" r="10" fill="#FFFFFF"/><circle cx="510" cy="621" r="6" fill="#F6E77E"/><circle cx="659" cy="628" r="8" fill="#FF9CB5"/><circle cx="808" cy="635" r="10" fill="#FFFFFF"/><circle cx="957" cy="621" r="6" fill="#F6E77E"/><circle cx="1106" cy="628" r="8" fill="#FF9CB5"/><circle cx="55" cy="635" r="10" fill="#FFFFFF"/><circle cx="204" cy="621" r="6" fill="#F6E77E"/><circle cx="353" cy="628" r="8" fill="#FF9CB5"/><circle cx="502" cy="635" r="10" fill="#FFFFFF"/><circle cx="651" cy="621" r="6" fill="#F6E77E"/>
</svg>