<svg xmlns="http://www.w3.org/2000/svg" width="1200" height="650" viewBox="0 0 1200 650">
<title>DeX Kids Adventure – illustrated lam vien</title>
<defs><linearGradient id="sky" x2="0" y2="1"><stop stop-color="#79C3FB"/><stop offset="1" stop-color="#E0F1F6"/></linearGradient>
<linearGradient id="land" x2="0" y2="1"><stop stop-color="#8ACF79"/><stop offset="1" stop-color="#4A9C61"/></linearGradient>
<linearGradient id="sea" x2="0" y2="1"><stop stop-color="#54C8E1"/><stop offset="1" stop-color="#138FB9"/></linearGradient>
<linearGradient id="tower" x2="0" y2="1"><stop stop-color="#FFE7AE"/><stop offset="1" stop-color="#E7B57B"/></linearGradient></defs>
<rect x="0" y="0" width="1200" height="650" fill="url(#sky)" />
<circle cx="1020" cy="98" r="56" fill="#FFF7C5"/>
<ellipse cx="165" cy="107" rx="92" ry="26" fill="#FFFFFF"/><ellipse cx="216" cy="99" rx="70" ry="34" fill="#FFFFFF"/><ellipse cx="640" cy="85" rx="98" ry="24" fill="#FFFFFF"/><ellipse cx="700" cy="79" rx="65" ry="32" fill="#FFFFFF"/>
<path d="M0 320 Q138 182 280 288 T560 299 T835 280 T1200 281 L1200 650 L0 650Z" fill="#6EAFA1" stroke="none" stroke-width="0" stroke-linejoin="round"/>
<path d="M0 382 Q205 284 375 367 T770 331 T1200 362 L1200 650 L0 650Z" fill="#3C8F81" stroke="none" stroke-width="0" stroke-linejoin="round"/>
<path d="M0 518 Q204 464 422 525 T855 512 T1200 499 L1200 650 L0 650Z" fill="url(#land)" stroke="none" stroke-width="0" stroke-linejoin="round"/><path d="M0 615 Q210 560 410 614 T900 589 T1200 617 L1200 650 L0 650Z" fill="#3F9259" stroke="none" stroke-width="0" stroke-linejoin="round"/><path d="M0 492 Q210 472 431 487 T841 491 T1200 495 L1200 565 L0 565Z" fill="#79BAC1" stroke="none" stroke-width="0" stroke-linejoin="round"/>
<path d="M458 495 L593 236 L743 496Z" fill="#D2F1E1" stroke="#6DACA4" stroke-width="9" stroke-linejoin="round"/>
<path d="M486 472 L593 250 L712 472" fill="none" stroke="#99D4BF" stroke-width="6"/><path d="M510 472 L593 250 L688 472" fill="none" stroke="#99D4BF" stroke-width="6"/><path d="M534 472 L593 250 L664 472" fill="none" stroke="#99D4BF" stroke-width="6"/><path d="M558 472 L593 250 L640 472" fill="none" stroke="#99D4BF" stroke-width="6"/><path d="M582 472 L593 250 L616 472" fill="none" stroke="#99D4BF" stroke-width="6"/><path d="M606 472 L593 250 L592 472" fill="none" stroke="#99D4BF" stroke-width="6"/>
<path d="M760 495 Q764 312 882 307 Q987 325 982 495Z" fill="#F2C247" stroke="#CC8A31" stroke-width="8" stroke-linejoin="round"/>
<path d="M769 489 L873 313" stroke="#FFF0A1" stroke-width="4"/><path d="M795 489 L873 313" stroke="#FFF0A1" stroke-width="4"/><path d="M821 489 L873 313" stroke="#FFF0A1" stroke-width="4"/><path d="M847 489 L873 313" stroke="#FFF0A1" stroke-width="4"/><path d="M873 489 L873 313" stroke="#FFF0A1" stroke-width="4"/><path d="M899 489 L873 313" stroke="#FFF0A1" stroke-width="4"/><path d="M925 489 L873 313" stroke="#FFF0A1" stroke-width="4"/><path d="M951 489 L873 313" stroke="#FFF0A1" stroke-width="4"/><path d="M977 489 L873 313" stroke="#FFF0A1" stroke-width="4"/><path d="M0 620 Q110 601 235 626 T495 622 T764 620 T1200 623 L1200 650 L0 650Z" fill="#408C59" stroke="none" stroke-width="0" stroke-linejoin="round"/>
<circle cx="63" cy="621" r="6" fill="#F6E77E"/><circle cx="212" cy="628" r="8" fill="#FF9CB5"/><circle cx="361" cy="635" r="10" fill="#FFFFFF"/><circle cx="510" cy="621" r="6" fill="#F6E77E"/><circle cx="659" cy="628" r="8" fill="#FF9CB5"/><circle cx="808" cy="635" r="10" fill="#FFFFFF"/><circle cx="957" cy="621" r="6" fill="#F6E77E"/><circle cx="1106" cy="628" r="8" fill="#FF9CB5"/><circle cx="55" cy="635" r="10" fill="#FFFFFF"/><circle cx="204" cy="621" r="6" fill="#F6E77E"/><circle cx="353" cy="628" r="8" fill="#FF9CB5"/><circle cx="502" cy="635" r="10" fill="#FFFFFF"/><circle cx="651" cy="621" r="6" fill="#F6E77E"/>
</svg>